<?xml version="1.0" encoding="utf-8"?>
<!-- Generator: Adobe Illustrator 21.0.2, SVG Export Plug-In . SVG Version: 6.00 Build 0)  -->
<svg version="1.1" xmlns="http://www.w3.org/2000/svg" xmlns:xlink="http://www.w3.org/1999/xlink" x="0px" y="0px"
	 viewBox="0 0 139.6 139.6" style="enable-background:new 0 0 139.6 139.6;" xml:space="preserve">
<style type="text/css">
	.st0{fill:#2C3E50;}
	.st1{fill:#FFFFFF;}
</style>
<g id="Layer_1">
	<g id="Layer_2">
		<circle class="st0" cx="69.8" cy="69.8" r="69.8"/>
	</g>
</g>
<g id="Layer_2_1_">
	<path class="st1" d="M86,76.8c-0.1,0.6-0.1,0.9-0.2,1.1c-0.1,0.2-0.2,0.6-0.7,0.8c-0.5,0.2-5.2,1.3-5.6,1.4c-0.4,0.1-0.5,0-0.6,0
		c-0.1,0-0.6,0-0.9,0c0,0-0.1,0-0.3,0l0,0c0,0-5,0.4-7.9,0.4c0,0-0.1,0-0.1,0s-0.1,0-0.1,0c-2.9,0-7.9-0.4-7.9-0.4l0,0
		c-0.1,0-0.2,0-0.3,0c-0.3,0-0.8,0-0.9,0c-0.1,0-0.2,0.1-0.6,0c-0.4-0.1-5.1-1.2-5.6-1.4c-0.5-0.2-0.5-0.6-0.7-0.8
		c-0.1-0.2-0.1-0.5-0.2-1.1c-0.1-0.6,0-3.2,0-3.9c0-0.6,0.2-2.8,0.3-3.4c0.1-0.6,0.5-1.9,0.8-2.1c0.3-0.2,0.7-0.5,1.1-0.8
		c0.4-0.3,2.4-1.5,2.5-1.6c0.2-0.1,0.3-0.3,0.1-0.5c-0.2-0.2-0.3,0-0.5,0c-0.2,0-1-0.1-1.4-0.2c-0.4-0.1-0.4-0.4-0.3-0.7
		c0.1-0.4,0.2-0.5,0.5-0.6c0.3-0.1,0.5-0.2,1-0.2c0.5-0.1,0.5,0.1,0.7,0.5c0.2,0.4,0.2,0.9,0.4,0.9c0.2,0,0.5-0.9,1.3-2.2
		c0.8-1.3,1.8-2.4,2.5-2.6c0.6-0.2,3.1-0.4,5.6-0.4c0.5,0,0.9,0,1.4,0c0,0,0.1,0,0.1,0c0,0,0.1,0,0.1,0c0.5,0,0.9,0,1.4,0
		c2.5,0.1,5.1,0.3,5.6,0.4c0.7,0.2,1.7,1.2,2.5,2.6c0.8,1.3,1.1,2.2,1.3,2.2c0.2,0,0.2-0.4,0.4-0.9c0.2-0.4,0.2-0.6,0.7-0.5
		c0.5,0.1,0.8,0.1,1,0.2c0.3,0.1,0.4,0.2,0.5,0.6c0.1,0.4,0.1,0.6-0.3,0.7c-0.4,0.1-1.2,0.2-1.4,0.2c-0.2,0-0.3-0.2-0.5,0
		c-0.2,0.2,0,0.3,0.1,0.5c0.2,0.1,2.1,1.3,2.5,1.6c0.4,0.3,0.8,0.6,1.1,0.8c0.3,0.2,0.7,1.5,0.8,2.1c0.1,0.6,0.3,2.7,0.3,3.4
		C86,73.6,86.1,76.3,86,76.8z M84.7,68c0,0-2.5,0.7-4.3,1.5s-2,1.7-2,1.7s1.1,0.4,1.4,0.5c0.3,0.1,0.7,0,1.4-0.1
		c0.7-0.2,1.1-0.3,1.4-0.3c0.3-0.1,0.4-0.1,0.7,0c0.2,0.1,0.3,0.2,0.6,0.1c0.3-0.1,1.3-0.6,1.3-1.3c0-0.7,0-0.8-0.1-1.2
		C84.8,68.5,84.7,68,84.7,68z M54.7,68.9c-0.1,0.4-0.1,0.5-0.1,1.2c0,0.7,1,1.1,1.3,1.3c0.3,0.1,0.3,0,0.6-0.1
		c0.2-0.1,0.4-0.1,0.7,0c0.3,0.1,0.7,0.2,1.4,0.3c0.7,0.2,1.1,0.2,1.4,0.1c0.3-0.1,1.4-0.5,1.4-0.5s-0.3-1-2-1.7S54.9,68,54.9,68
		S54.8,68.5,54.7,68.9z M79.9,74.8c0-2.3-4.7-3.1-8.7-3.3c0,0,0,0,0,0c-0.1,0-0.2,0-0.2,0c-0.1,0-0.2,0-0.3,0c0,0,0,0,0,0
		c-0.2,0-0.5,0-0.7,0c0,0,0,0,0,0s0,0,0,0c-0.2,0-0.5,0-0.7,0c0,0,0,0,0,0c-0.1,0-0.2,0-0.3,0c-0.1,0-0.2,0-0.2,0c0,0,0,0,0,0
		c-4,0.1-8.7,0.9-8.7,3.3c0,2.6,3.6,2.7,10,2.7c0,0,0,0,0,0c0,0,0,0,0,0c0,0,0,0,0,0c0,0,0,0,0,0C76.3,77.5,79.9,77.4,79.9,74.8z
		 M69.1,72.5c0,0,0.1,0.2,0.3,0.6c0.2,0.4,0.5,0.6,0.5,0.6s0.4-0.3,0.6-0.6c0.2-0.3,0.3-0.5,0.3-0.5l5.8-0.1c0,0-3.6-0.6-6.8-0.6
		s-6.7,0.6-6.7,0.6L69.1,72.5z M54.2,74.6c0,0-0.1,0.7,0.1,1.3c0.1,0.6,0.4,1,0.6,1.3c0.2,0.2,1.1,0.6,1.4,0.7c0.3,0,0.7-0.1,1.1,0
		c0.4,0.1,2,0.6,2.5,0.7c0.5,0.2,0.2-0.6,0.1-1c-0.2-0.4-0.3-0.8-0.6-0.9C59,76.4,57.9,76,57,75.7C56,75.4,54.2,74.5,54.2,74.6
		L54.2,74.6z M85.3,74.5c0,0-1.9,0.9-2.8,1.2c-0.9,0.3-2,0.7-2.2,0.9c-0.3,0.1-0.4,0.5-0.6,0.9c-0.2,0.4-0.4,1.2,0.1,1
		c0.5-0.2,2.2-0.7,2.5-0.7c0.4-0.1,0.7,0.1,1.1,0c0.3,0,1.2-0.4,1.4-0.7c0.2-0.2,0.5-0.7,0.6-1.3C85.3,75.3,85.3,74.6,85.3,74.5
		L85.3,74.5z M78.5,77.8c0,0-6.3,0.4-8.7,0.4c-2.3,0-8.7-0.4-8.7-0.4s-0.1,0.9,0.4,1c0.3,0.1,2.9,0.2,5.2,0.3l0,0c0,0,1,0.1,3,0.1
		c0,0,0.1,0,0.1,0c0,0,0.1,0,0.1,0c2,0,2.9-0.1,2.9-0.1c2.4-0.1,5-0.3,5.3-0.3C78.6,78.7,78.5,77.8,78.5,77.8z M79,62.8
		c-0.5-1.1-1.2-2.1-1.4-2.4c-0.2-0.3-0.2-0.3-1.2-0.4c-0.6-0.1-2.7-0.1-4.4-0.2v-0.1c0,0-1.2-0.1-2.1,0c0,0-0.1,0-0.1,0
		c0,0-0.1,0-0.1,0c-0.9-0.1-2.1,0-2.1,0v0.1c-1.7,0-3.8,0.1-4.4,0.2c-1,0.1-1,0.2-1.2,0.4c-0.2,0.3-0.9,1.3-1.4,2.4
		c-0.5,1.1-0.1,1,0.6,1.1C62,64,68.2,64,69.8,64c0,0,0,0,0.1,0c1.6,0,7.8,0,8.5-0.1C79.1,63.9,79.5,63.9,79,62.8z"/>
</g>
<g id="Layer_3">
	<rect x="44.8" y="44.8" class="st1" width="2" height="18"/>
	<rect x="44.8" y="76.8" class="st1" width="2" height="18"/>
	<rect x="92.8" y="76.8" class="st1" width="2" height="18"/>
	<rect x="92.8" y="44.8" class="st1" width="2" height="18"/>
	<rect x="84.8" y="36.8" transform="matrix(6.123234e-17 -1 1 6.123234e-17 40.0079 131.594)" class="st1" width="2" height="18"/>
	<rect x="52.8" y="36.8" transform="matrix(6.123234e-17 -1 1 6.123234e-17 8.006 99.5921)" class="st1" width="2" height="18"/>
	<rect x="52.8" y="84.8" transform="matrix(6.123234e-17 -1 1 6.123234e-17 -40.0079 147.606)" class="st1" width="2" height="18"/>
	<rect x="84.8" y="84.8" transform="matrix(6.123234e-17 -1 1 6.123234e-17 -8.006 179.6079)" class="st1" width="2" height="18"/>
</g>
</svg>
