<?xml version="1.0" encoding="utf-8"?>
<!-- Generator: Adobe Illustrator 21.0.2, SVG Export Plug-In . SVG Version: 6.00 Build 0)  -->
<svg version="1.1" id="Layer_3" xmlns="http://www.w3.org/2000/svg" xmlns:xlink="http://www.w3.org/1999/xlink" x="0px" y="0px"
	 viewBox="0 0 95.3 95.3" style="enable-background:new 0 0 95.3 95.3;" xml:space="preserve">
<style type="text/css">
	.st0{fill:#A1A1A1;}
</style>
<path class="st0" d="M9.2,23.1c0,0.9,0.6,1.5,1.5,1.5h10.8v10.9c0,0.9,0.6,1.5,1.5,1.5s1.5-0.6,1.5-1.5V24.6h10.8
	c0.9,0,1.5-0.6,1.5-1.5s-0.6-1.5-1.5-1.5H24.6V10.6c0-0.9-0.6-1.5-1.5-1.5s-1.5,0.6-1.5,1.5v10.9H10.8C9.8,21.5,9.2,22.1,9.2,23.1z"
	/>
<path class="st0" d="M81,14.3c-0.6-0.6-1.5-0.6-2.2,0l-6.6,6.6l-6.6-6.6c-0.6-0.6-1.5-0.6-2.2,0s-0.6,1.5,0,2.2l6.6,6.6l-6.6,6.6
	c-0.6,0.6-0.6,1.5,0,2.2c0.3,0.3,0.8,0.5,1.1,0.5c0.3,0,0.8-0.2,1.1-0.5l6.6-6.6l6.6,6.6c0.3,0.3,0.8,0.5,1.1,0.5
	c0.3,0,0.8-0.2,1.1-0.5c0.6-0.6,0.6-1.5,0-2.2l-6.6-6.6l6.6-6.6C81.6,15.8,81.6,14.9,81,14.3z"/>
<path class="st0" d="M36.9,70.7c0-0.9-0.6-1.5-1.5-1.5H10.8c-0.9,0-1.5,0.6-1.5,1.5c0,0.9,0.6,1.5,1.5,1.5h24.6
	C36.3,72.3,36.9,71.7,36.9,70.7z"/>
<path class="st0" d="M83,63H58.4c-0.9,0-1.5,0.6-1.5,1.5c0,0.9,0.6,1.5,1.5,1.5H83c0.9,0,1.5-0.6,1.5-1.5C84.6,63.7,84,63,83,63z"/>
<path class="st0" d="M83,75.3H58.4c-0.9,0-1.5,0.6-1.5,1.5s0.6,1.5,1.5,1.5H83c0.9,0,1.5-0.6,1.5-1.5S84,75.3,83,75.3z"/>
<path class="st0" d="M95.3,46.1H49.2V0h-3.1v46.1H0v3.1h46.1v46.1h3.1V49.2h46.1V46.1z"/>
</svg>
