<?xml version="1.0" encoding="utf-8"?>
<!-- Generator: Adobe Illustrator 21.0.2, SVG Export Plug-In . SVG Version: 6.00 Build 0)  -->
<svg version="1.1" id="Layer_1" xmlns="http://www.w3.org/2000/svg" xmlns:xlink="http://www.w3.org/1999/xlink" x="0px" y="0px"
	 viewBox="0 0 95 95" style="enable-background:new 0 0 95 95;" xml:space="preserve">
<style type="text/css">
	.st0{fill:#A1A1A1;}
</style>
<path class="st0" d="M10.4,23.8c0,0.9,0.6,1.5,1.5,1.5h10.4v10.5c0,0.9,0.6,1.5,1.5,1.5s1.5-0.6,1.5-1.5V25.2h10.4
	c0.9,0,1.5-0.6,1.5-1.5s-0.6-1.5-1.5-1.5H25.2V11.7c0-0.9-0.6-1.5-1.5-1.5s-1.5,0.6-1.5,1.5v10.5H11.9C11,22.3,10.4,22.9,10.4,23.8z
	"/>
<path class="st0" d="M79.7,15.3c-0.6-0.6-1.5-0.6-2.1,0l-6.4,6.4l-6.4-6.4c-0.6-0.6-1.5-0.6-2.1,0c-0.6,0.6-0.6,1.5,0,2.1l6.4,6.4
	l-6.4,6.4c-0.6,0.6-0.6,1.5,0,2.1c0.3,0.3,0.7,0.4,1,0.4s0.7-0.1,1-0.4l6.4-6.4l6.4,6.4c0.3,0.3,0.7,0.4,1,0.4s0.7-0.1,1-0.4
	c0.6-0.6,0.6-1.5,0-2.1l-6.4-6.4l6.4-6.4C80.3,16.8,80.3,15.9,79.7,15.3z"/>
<path class="st0" d="M37.1,69.8c0-0.9-0.6-1.5-1.5-1.5H11.9c-0.9,0-1.5,0.6-1.5,1.5s0.6,1.5,1.5,1.5h23.8
	C36.5,71.3,37.1,70.7,37.1,69.8z"/>
<path class="st0" d="M81.6,62.3H57.9c-0.9,0-1.5,0.6-1.5,1.5c0,0.9,0.6,1.5,1.5,1.5h23.8c0.9,0,1.5-0.6,1.5-1.5
	C83.1,62.9,82.5,62.3,81.6,62.3z"/>
<path class="st0" d="M81.6,74.2H57.9c-0.9,0-1.5,0.6-1.5,1.5s0.6,1.5,1.5,1.5h23.8c0.9,0,1.5-0.6,1.5-1.5S82.5,74.2,81.6,74.2z"/>
<path class="st0" d="M93.5,46H49V1.5C49,0.6,48.4,0,47.5,0S46,0.6,46,1.5V46H1.5C0.6,46,0,46.6,0,47.5S0.6,49,1.5,49H46v44.5
	c0,0.9,0.6,1.5,1.5,1.5s1.5-0.6,1.5-1.5V49h44.5c0.9,0,1.5-0.6,1.5-1.5S94.4,46,93.5,46z"/>
</svg>
