<?xml version="1.0" encoding="utf-8"?>
<!-- Generator: Adobe Illustrator 21.0.2, SVG Export Plug-In . SVG Version: 6.00 Build 0)  -->
<svg version="1.1"
	 id="Layer_1" xmlns:cc="http://creativecommons.org/ns#" xmlns:dc="http://purl.org/dc/elements/1.1/" xmlns:inkscape="http://www.inkscape.org/namespaces/inkscape" xmlns:rdf="http://www.w3.org/1999/02/22-rdf-syntax-ns#" xmlns:sodipodi="http://sodipodi.sourceforge.net/DTD/sodipodi-0.dtd" xmlns:svg="http://www.w3.org/2000/svg"
	 xmlns="http://www.w3.org/2000/svg" xmlns:xlink="http://www.w3.org/1999/xlink" x="0px" y="0px" viewBox="0 0 76 76"
	 style="enable-background:new 0 0 76 76;" xml:space="preserve">
<style type="text/css">
	.st0{fill:#A1A1A1;}
</style>
<g transform="translate(0,-952.36218)">
	<path class="st0" d="M70,1016.4H46c-0.1,0-0.1,0-0.2,0c-0.5,0-1,0.5-0.9,1.1c0.1,0.6,0.5,1,1.1,0.9h24c0.5,0,1-0.4,1-1
		C71,1016.8,70.6,1016.4,70,1016.4z M30,1009.4H6c-0.1,0-0.1,0-0.2,0c-0.5,0-1,0.5-0.9,1.1c0.1,0.6,0.5,1,1.1,0.9h24
		c0.5,0,1-0.4,1-1C31,1009.8,30.6,1009.4,30,1009.4z M70,1002.4H46c-0.1,0-0.1,0-0.2,0c-0.5,0-1,0.5-0.9,1.1c0.1,0.6,0.5,1,1.1,0.9
		h24c0.5,0,1-0.4,1-1C71,1002.8,70.6,1002.4,70,1002.4z M70,1016.4H46c-0.1,0-0.1,0-0.2,0c-0.5,0-1,0.5-0.9,1.1
		c0.1,0.6,0.5,1,1.1,0.9h24c0.5,0,1-0.4,1-1C71,1016.8,70.6,1016.4,70,1016.4z M70,1002.4H46c-0.1,0-0.1,0-0.2,0
		c-0.5,0-1,0.5-0.9,1.1c0.1,0.6,0.5,1,1.1,0.9h24c0.5,0,1-0.4,1-1C71,1002.8,70.6,1002.4,70,1002.4z M30,1009.4H6
		c-0.1,0-0.1,0-0.2,0c-0.5,0-1,0.5-0.9,1.1c0.1,0.6,0.5,1,1.1,0.9h24c0.5,0,1-0.4,1-1C31,1009.8,30.6,1009.4,30,1009.4z M59.4,970.4
		l11.3-11.3c0.4-0.4,0.4-1,0-1.4c-0.2-0.2-0.5-0.3-0.8-0.3c-0.3,0-0.5,0.1-0.7,0.3L58,968.9l-11.3-11.3c-0.2-0.2-0.5-0.4-0.8-0.3
		c-0.5,0.1-1,0.5-0.9,1.1c0,0.2,0.1,0.5,0.3,0.6l11.3,11.3l-11.3,11.3c-0.4,0.4-0.4,1,0,1.4c0.4,0.4,1,0.4,1.4,0L58,971.8l11.3,11.3
		c0.4,0.4,1,0.4,1.4,0c0.4-0.4,0.4-1,0-1.4L59.4,970.4z M30,969.4H19v-11c0-0.5-0.4-1-1-1c-0.1,0-0.1,0-0.2,0
		c-0.5,0.1-0.9,0.5-0.9,1v11H6c-0.1,0-0.1,0-0.2,0c-0.5,0-1,0.5-0.9,1.1c0.1,0.6,0.5,1,1.1,0.9h11v11c0,0.5,0.4,1,1,1
		c0.5,0,1-0.4,1-1v-11h11c0.5,0,1-0.4,1-1C31,969.8,30.6,969.4,30,969.4z M59.4,970.4l11.3-11.3c0.4-0.4,0.4-1,0-1.4
		c-0.2-0.2-0.5-0.3-0.8-0.3c-0.3,0-0.5,0.1-0.7,0.3L58,968.9l-11.3-11.3c-0.2-0.2-0.5-0.4-0.8-0.3c-0.5,0.1-1,0.5-0.9,1.1
		c0,0.2,0.1,0.5,0.3,0.6l11.3,11.3l-11.3,11.3c-0.4,0.4-0.4,1,0,1.4c0.4,0.4,1,0.4,1.4,0L58,971.8l11.3,11.3c0.4,0.4,1,0.4,1.4,0
		c0.4-0.4,0.4-1,0-1.4L59.4,970.4z M30,969.4H19v-11c0-0.5-0.4-1-1-1c-0.1,0-0.1,0-0.2,0c-0.5,0.1-0.9,0.5-0.9,1v11H6
		c-0.1,0-0.1,0-0.2,0c-0.5,0-1,0.5-0.9,1.1c0.1,0.6,0.5,1,1.1,0.9h11v11c0,0.5,0.4,1,1,1c0.5,0,1-0.4,1-1v-11h11c0.5,0,1-0.4,1-1
		C31,969.8,30.6,969.4,30,969.4z M59.4,970.4l11.3-11.3c0.4-0.4,0.4-1,0-1.4c-0.2-0.2-0.5-0.3-0.8-0.3c-0.3,0-0.5,0.1-0.7,0.3
		L58,968.9l-11.3-11.3c-0.2-0.2-0.5-0.4-0.8-0.3c-0.5,0.1-1,0.5-0.9,1.1c0,0.2,0.1,0.5,0.3,0.6l11.3,11.3l-11.3,11.3
		c-0.4,0.4-0.4,1,0,1.4c0.4,0.4,1,0.4,1.4,0L58,971.8l11.3,11.3c0.4,0.4,1,0.4,1.4,0c0.4-0.4,0.4-1,0-1.4L59.4,970.4z M70,1002.4H46
		c-0.1,0-0.1,0-0.2,0c-0.5,0-1,0.5-0.9,1.1c0.1,0.6,0.5,1,1.1,0.9h24c0.5,0,1-0.4,1-1C71,1002.8,70.6,1002.4,70,1002.4z M70,1016.4
		H46c-0.1,0-0.1,0-0.2,0c-0.5,0-1,0.5-0.9,1.1c0.1,0.6,0.5,1,1.1,0.9h24c0.5,0,1-0.4,1-1C71,1016.8,70.6,1016.4,70,1016.4z
		 M59.4,970.4l11.3-11.3c0.4-0.4,0.4-1,0-1.4c-0.2-0.2-0.5-0.3-0.8-0.3c-0.3,0-0.5,0.1-0.7,0.3L58,968.9l-11.3-11.3
		c-0.2-0.2-0.5-0.4-0.8-0.3c-0.5,0.1-1,0.5-0.9,1.1c0,0.2,0.1,0.5,0.3,0.6l11.3,11.3l-11.3,11.3c-0.4,0.4-0.4,1,0,1.4
		c0.4,0.4,1,0.4,1.4,0L58,971.8l11.3,11.3c0.4,0.4,1,0.4,1.4,0c0.4-0.4,0.4-1,0-1.4L59.4,970.4z M70,1016.4H46c-0.1,0-0.1,0-0.2,0
		c-0.5,0-1,0.5-0.9,1.1c0.1,0.6,0.5,1,1.1,0.9h24c0.5,0,1-0.4,1-1C71,1016.8,70.6,1016.4,70,1016.4z M70,1002.4H46
		c-0.1,0-0.1,0-0.2,0c-0.5,0-1,0.5-0.9,1.1c0.1,0.6,0.5,1,1.1,0.9h24c0.5,0,1-0.4,1-1C71,1002.8,70.6,1002.4,70,1002.4z M59.4,970.4
		l11.3-11.3c0.4-0.4,0.4-1,0-1.4c-0.2-0.2-0.5-0.3-0.8-0.3c-0.3,0-0.5,0.1-0.7,0.3L58,968.9l-11.3-11.3c-0.2-0.2-0.5-0.4-0.8-0.3
		c-0.5,0.1-1,0.5-0.9,1.1c0,0.2,0.1,0.5,0.3,0.6l11.3,11.3l-11.3,11.3c-0.4,0.4-0.4,1,0,1.4c0.4,0.4,1,0.4,1.4,0L58,971.8l11.3,11.3
		c0.4,0.4,1,0.4,1.4,0c0.4-0.4,0.4-1,0-1.4L59.4,970.4z M70,1002.4H46c-0.1,0-0.1,0-0.2,0c-0.5,0-1,0.5-0.9,1.1
		c0.1,0.6,0.5,1,1.1,0.9h24c0.5,0,1-0.4,1-1C71,1002.8,70.6,1002.4,70,1002.4z M70,1016.4H46c-0.1,0-0.1,0-0.2,0
		c-0.5,0-1,0.5-0.9,1.1c0.1,0.6,0.5,1,1.1,0.9h24c0.5,0,1-0.4,1-1C71,1016.8,70.6,1016.4,70,1016.4z M59.4,970.4l11.3-11.3
		c0.4-0.4,0.4-1,0-1.4c-0.2-0.2-0.5-0.3-0.8-0.3c-0.3,0-0.5,0.1-0.7,0.3L58,968.9l-11.3-11.3c-0.2-0.2-0.5-0.4-0.8-0.3
		c-0.5,0.1-1,0.5-0.9,1.1c0,0.2,0.1,0.5,0.3,0.6l11.3,11.3l-11.3,11.3c-0.4,0.4-0.4,1,0,1.4c0.4,0.4,1,0.4,1.4,0L58,971.8l11.3,11.3
		c0.4,0.4,1,0.4,1.4,0c0.4-0.4,0.4-1,0-1.4L59.4,970.4z M59.4,970.4l11.3-11.3c0.4-0.4,0.4-1,0-1.4c-0.2-0.2-0.5-0.3-0.8-0.3
		c-0.3,0-0.5,0.1-0.7,0.3L58,968.9l-11.3-11.3c-0.2-0.2-0.5-0.4-0.8-0.3c-0.5,0.1-1,0.5-0.9,1.1c0,0.2,0.1,0.5,0.3,0.6l11.3,11.3
		l-11.3,11.3c-0.4,0.4-0.4,1,0,1.4c0.4,0.4,1,0.4,1.4,0L58,971.8l11.3,11.3c0.4,0.4,1,0.4,1.4,0c0.4-0.4,0.4-1,0-1.4L59.4,970.4z
		 M59.4,970.4l11.3-11.3c0.4-0.4,0.4-1,0-1.4c-0.2-0.2-0.5-0.3-0.8-0.3c-0.3,0-0.5,0.1-0.7,0.3L58,968.9l-11.3-11.3
		c-0.2-0.2-0.5-0.4-0.8-0.3c-0.5,0.1-1,0.5-0.9,1.1c0,0.2,0.1,0.5,0.3,0.6l11.3,11.3l-11.3,11.3c-0.4,0.4-0.4,1,0,1.4
		c0.4,0.4,1,0.4,1.4,0L58,971.8l11.3,11.3c0.4,0.4,1,0.4,1.4,0c0.4-0.4,0.4-1,0-1.4L59.4,970.4z M39,989.4v-37h-2v37H0v2h37v37h2
		v-37h37v-2H39z M59.4,970.4l11.3-11.3c0.4-0.4,0.4-1,0-1.4c-0.2-0.2-0.5-0.3-0.8-0.3c-0.3,0-0.5,0.1-0.7,0.3L58,968.9l-11.3-11.3
		c-0.2-0.2-0.5-0.4-0.8-0.3c-0.5,0.1-1,0.5-0.9,1.1c0,0.2,0.1,0.5,0.3,0.6l11.3,11.3l-11.3,11.3c-0.4,0.4-0.4,1,0,1.4
		c0.4,0.4,1,0.4,1.4,0L58,971.8l11.3,11.3c0.4,0.4,1,0.4,1.4,0c0.4-0.4,0.4-1,0-1.4L59.4,970.4z M59.4,970.4l11.3-11.3
		c0.4-0.4,0.4-1,0-1.4c-0.2-0.2-0.5-0.3-0.8-0.3c-0.3,0-0.5,0.1-0.7,0.3L58,968.9l-11.3-11.3c-0.2-0.2-0.5-0.4-0.8-0.3
		c-0.5,0.1-1,0.5-0.9,1.1c0,0.2,0.1,0.5,0.3,0.6l11.3,11.3l-11.3,11.3c-0.4,0.4-0.4,1,0,1.4c0.4,0.4,1,0.4,1.4,0L58,971.8l11.3,11.3
		c0.4,0.4,1,0.4,1.4,0c0.4-0.4,0.4-1,0-1.4L59.4,970.4z M59.4,970.4l11.3-11.3c0.4-0.4,0.4-1,0-1.4c-0.2-0.2-0.5-0.3-0.8-0.3
		c-0.3,0-0.5,0.1-0.7,0.3L58,968.9l-11.3-11.3c-0.2-0.2-0.5-0.4-0.8-0.3c-0.5,0.1-1,0.5-0.9,1.1c0,0.2,0.1,0.5,0.3,0.6l11.3,11.3
		l-11.3,11.3c-0.4,0.4-0.4,1,0,1.4c0.4,0.4,1,0.4,1.4,0L58,971.8l11.3,11.3c0.4,0.4,1,0.4,1.4,0c0.4-0.4,0.4-1,0-1.4L59.4,970.4z
		 M70,1002.4H46c-0.1,0-0.1,0-0.2,0c-0.5,0-1,0.5-0.9,1.1c0.1,0.6,0.5,1,1.1,0.9h24c0.5,0,1-0.4,1-1
		C71,1002.8,70.6,1002.4,70,1002.4z M70,1016.4H46c-0.1,0-0.1,0-0.2,0c-0.5,0-1,0.5-0.9,1.1c0.1,0.6,0.5,1,1.1,0.9h24
		c0.5,0,1-0.4,1-1C71,1016.8,70.6,1016.4,70,1016.4z M59.4,970.4l11.3-11.3c0.4-0.4,0.4-1,0-1.4c-0.2-0.2-0.5-0.3-0.8-0.3
		c-0.3,0-0.5,0.1-0.7,0.3L58,968.9l-11.3-11.3c-0.2-0.2-0.5-0.4-0.8-0.3c-0.5,0.1-1,0.5-0.9,1.1c0,0.2,0.1,0.5,0.3,0.6l11.3,11.3
		l-11.3,11.3c-0.4,0.4-0.4,1,0,1.4c0.4,0.4,1,0.4,1.4,0L58,971.8l11.3,11.3c0.4,0.4,1,0.4,1.4,0c0.4-0.4,0.4-1,0-1.4L59.4,970.4z
		 M70,1016.4H46c-0.1,0-0.1,0-0.2,0c-0.5,0-1,0.5-0.9,1.1c0.1,0.6,0.5,1,1.1,0.9h24c0.5,0,1-0.4,1-1
		C71,1016.8,70.6,1016.4,70,1016.4z M70,1002.4H46c-0.1,0-0.1,0-0.2,0c-0.5,0-1,0.5-0.9,1.1c0.1,0.6,0.5,1,1.1,0.9h24
		c0.5,0,1-0.4,1-1C71,1002.8,70.6,1002.4,70,1002.4z M59.4,970.4l11.3-11.3c0.4-0.4,0.4-1,0-1.4c-0.2-0.2-0.5-0.3-0.8-0.3
		c-0.3,0-0.5,0.1-0.7,0.3L58,968.9l-11.3-11.3c-0.2-0.2-0.5-0.4-0.8-0.3c-0.5,0.1-1,0.5-0.9,1.1c0,0.2,0.1,0.5,0.3,0.6l11.3,11.3
		l-11.3,11.3c-0.4,0.4-0.4,1,0,1.4c0.4,0.4,1,0.4,1.4,0L58,971.8l11.3,11.3c0.4,0.4,1,0.4,1.4,0c0.4-0.4,0.4-1,0-1.4L59.4,970.4z
		 M70,1002.4H46c-0.1,0-0.1,0-0.2,0c-0.5,0-1,0.5-0.9,1.1c0.1,0.6,0.5,1,1.1,0.9h24c0.5,0,1-0.4,1-1
		C71,1002.8,70.6,1002.4,70,1002.4z M70,1016.4H46c-0.1,0-0.1,0-0.2,0c-0.5,0-1,0.5-0.9,1.1c0.1,0.6,0.5,1,1.1,0.9h24
		c0.5,0,1-0.4,1-1C71,1016.8,70.6,1016.4,70,1016.4z M59.4,970.4l11.3-11.3c0.4-0.4,0.4-1,0-1.4c-0.2-0.2-0.5-0.3-0.8-0.3
		c-0.3,0-0.5,0.1-0.7,0.3L58,968.9l-11.3-11.3c-0.2-0.2-0.5-0.4-0.8-0.3c-0.5,0.1-1,0.5-0.9,1.1c0,0.2,0.1,0.5,0.3,0.6l11.3,11.3
		l-11.3,11.3c-0.4,0.4-0.4,1,0,1.4c0.4,0.4,1,0.4,1.4,0L58,971.8l11.3,11.3c0.4,0.4,1,0.4,1.4,0c0.4-0.4,0.4-1,0-1.4L59.4,970.4z
		 M70,1016.4H46c-0.1,0-0.1,0-0.2,0c-0.5,0-1,0.5-0.9,1.1c0.1,0.6,0.5,1,1.1,0.9h24c0.5,0,1-0.4,1-1
		C71,1016.8,70.6,1016.4,70,1016.4z M70,1002.4H46c-0.1,0-0.1,0-0.2,0c-0.5,0-1,0.5-0.9,1.1c0.1,0.6,0.5,1,1.1,0.9h24
		c0.5,0,1-0.4,1-1C71,1002.8,70.6,1002.4,70,1002.4z M59.4,970.4l11.3-11.3c0.4-0.4,0.4-1,0-1.4c-0.2-0.2-0.5-0.3-0.8-0.3
		c-0.3,0-0.5,0.1-0.7,0.3L58,968.9l-11.3-11.3c-0.2-0.2-0.5-0.4-0.8-0.3c-0.5,0.1-1,0.5-0.9,1.1c0,0.2,0.1,0.5,0.3,0.6l11.3,11.3
		l-11.3,11.3c-0.4,0.4-0.4,1,0,1.4c0.4,0.4,1,0.4,1.4,0L58,971.8l11.3,11.3c0.4,0.4,1,0.4,1.4,0c0.4-0.4,0.4-1,0-1.4L59.4,970.4z
		 M30,1009.4H6c-0.1,0-0.1,0-0.2,0c-0.5,0-1,0.5-0.9,1.1c0.1,0.6,0.5,1,1.1,0.9h24c0.5,0,1-0.4,1-1C31,1009.8,30.6,1009.4,30,1009.4
		z M30,969.4H19v-11c0-0.5-0.4-1-1-1c-0.1,0-0.1,0-0.2,0c-0.5,0.1-0.9,0.5-0.9,1v11H6c-0.1,0-0.1,0-0.2,0c-0.5,0-1,0.5-0.9,1.1
		c0.1,0.6,0.5,1,1.1,0.9h11v11c0,0.5,0.4,1,1,1c0.5,0,1-0.4,1-1v-11h11c0.5,0,1-0.4,1-1C31,969.8,30.6,969.4,30,969.4z"/>
</g>
</svg>
