<?xml version="1.0" encoding="utf-8"?>
<!-- Generator: Adobe Illustrator 21.0.2, SVG Export Plug-In . SVG Version: 6.00 Build 0)  -->
<svg version="1.1" id="Layer_1" xmlns="http://www.w3.org/2000/svg" xmlns:xlink="http://www.w3.org/1999/xlink" x="0px" y="0px"
	 viewBox="0 0 17.4 17.4" style="enable-background:new 0 0 17.4 17.4;" xml:space="preserve">
<style type="text/css">
	.st0{fill:#A1A1A1;}
</style>
<g>
	<path class="st0" d="M15.9,1.6h-3.1V0.3c0-0.2-0.1-0.3-0.3-0.3s-0.3,0.1-0.3,0.3v2.8c0,0.2,0.1,0.3,0.3,0.3s0.3-0.1,0.3-0.3V2.2
		h3.1c0.5,0,0.9,0.4,0.9,0.9v2.8H0.6V3.1c0-0.5,0.4-0.9,0.9-0.9H4V1.6H1.6C0.7,1.6,0,2.3,0,3.1v12.8c0,0.9,0.7,1.6,1.6,1.6h14.3
		c0.9,0,1.6-0.7,1.6-1.6V3.1C17.4,2.3,16.7,1.6,15.9,1.6z M16.8,15.9c0,0.5-0.4,0.9-0.9,0.9H1.6c-0.5,0-0.9-0.4-0.9-0.9V6.5h16.2
		L16.8,15.9L16.8,15.9z"/>
	<path class="st0" d="M5,3.4c0.2,0,0.3-0.1,0.3-0.3V2.2h6.2V1.6H5.3V0.3C5.3,0.1,5.1,0,5,0S4.7,0.1,4.7,0.3v2.8
		C4.7,3.3,4.8,3.4,5,3.4z"/>
</g>
</svg>
