<?xml version="1.0" encoding="utf-8"?>
<!-- Generator: Adobe Illustrator 21.0.2, SVG Export Plug-In . SVG Version: 6.00 Build 0)  -->
<svg version="1.1" id="Layer_2" xmlns="http://www.w3.org/2000/svg" xmlns:xlink="http://www.w3.org/1999/xlink" x="0px" y="0px"
	 viewBox="0 0 695 165.8" style="enable-background:new 0 0 695 165.8;" xml:space="preserve">
<style type="text/css">
	.st0{fill:#E1E1E1;}
	.st1{fill:#2C3E50;}
	.st2{fill:#C0C0C0;}
	.st3{fill:#A1A1A1;}
</style>
<g>
	<path class="st0" d="M134.4,0v165.8H27.7C12.3,165.8,0,154.2,0,139.8V67c0-14.4,12.3-26.1,27.7-26.1h88V0H134.4z M106.9,148.2
		c4.8,0,8.9-3.9,8.9-8.4V67c0-4.5-4.1-8.4-8.9-8.4H27.7c-4.8,0-8.9,3.9-8.9,8.4v72.8c0,4.5,4.1,8.4,8.9,8.4H106.9z"/>
	<path class="st0" d="M276.7,40.9v17.7h-74.1c-4.8,0-8.9,3.9-8.9,8.4v98.9h-18.6V67c0-14.4,12.3-26.1,27.5-26.1H276.7z"/>
	<path class="st1" d="M326.9,0v17.7h-18.6V0H326.9z M308.3,40.9h18.6v124.9h-18.6V40.9z"/>
	<path class="st2" d="M531.5,40.9l-73,124.9H437c-24.1-42-48.7-83.1-72.8-124.9H386l61.8,107.7l61.8-107.7H531.5z"/>
	<path class="st3" d="M695,67v45.2H579.3v27.6c0,4.5,4.1,8.4,8.9,8.4H695v17.7H588.2c-15.2,0-27.5-11.6-27.5-26.1V67
		c0-14.4,12.3-26.1,27.5-26.1h79.1C682.7,40.9,695,52.6,695,67z M676.1,94.5V67c0-4.5-3.9-8.4-8.9-8.4h-79.1c-4.8,0-8.9,3.9-8.9,8.4
		v27.6H676.1z"/>
</g>
</svg>
