<?xml version="1.0" encoding="utf-8"?>
<!-- Generator: Adobe Illustrator 21.0.2, SVG Export Plug-In . SVG Version: 6.00 Build 0)  -->
<svg version="1.1" xmlns="http://www.w3.org/2000/svg" xmlns:xlink="http://www.w3.org/1999/xlink" x="0px" y="0px"
	 viewBox="0 0 295 295" style="enable-background:new 0 0 295 295;" xml:space="preserve">
<style type="text/css">
	.st0{fill:#FFFFFF;}
	.st1{fill:#2C3E50;}
</style>
<g id="Layer_2">
	<g>
		<circle class="st0" cx="147.5" cy="147.5" r="147.5"/>
	</g>
</g>
<g id="Layer_3">
	<g>
		<g>
			<path class="st1" d="M116.4,142.8c-0.5,0-1-0.2-1.3-0.5c-0.5-0.5-0.6-1.1-0.5-1.8l3.9-15.1c0.1-0.3,0.2-0.7,0.5-0.9l41.7-41.7
				c0.3-0.3,0.8-0.5,1.3-0.5l0,0c0.5,0,1,0.2,1.3,0.5L174.6,94c0.7,0.7,0.7,1.9,0,2.6l-41.7,41.7c-0.3,0.3-0.8,0.5-1.2,0.5
				l-14.8,3.8C116.7,142.7,116.6,142.8,116.4,142.8z M122,126.7l-3,11.6l11.7-3l40-40l-8.7-8.7L122,126.7z"/>
		</g>
		<g>
			<path class="st1" d="M173.3,97.2c-0.5,0-0.9-0.2-1.3-0.5l-11.3-11.3c-0.7-0.7-0.7-1.9,0-2.6l5.2-5.2c0.7-0.7,1.9-0.7,2.6,0
				l11.3,11.3c0.3,0.3,0.5,0.8,0.5,1.3s-0.2,1-0.5,1.3l-5.2,5.2C174.3,97,173.8,97.2,173.3,97.2z M164.7,84.1l8.7,8.7l2.6-2.6
				l-8.7-8.7L164.7,84.1z"/>
		</g>
	</g>
</g>
</svg>
