<?xml version="1.0" encoding="utf-8"?>
<!-- Generator: Adobe Illustrator 21.0.2, SVG Export Plug-In . SVG Version: 6.00 Build 0)  -->
<svg version="1.1"
	 id="Layer_1" xmlns:cc="http://creativecommons.org/ns#" xmlns:dc="http://purl.org/dc/elements/1.1/" xmlns:inkscape="http://www.inkscape.org/namespaces/inkscape" xmlns:rdf="http://www.w3.org/1999/02/22-rdf-syntax-ns#" xmlns:sodipodi="http://sodipodi.sourceforge.net/DTD/sodipodi-0.dtd" xmlns:svg="http://www.w3.org/2000/svg"
	 xmlns="http://www.w3.org/2000/svg" xmlns:xlink="http://www.w3.org/1999/xlink" x="0px" y="0px" viewBox="0 0 84 56"
	 style="enable-background:new 0 0 84 56;" xml:space="preserve">
<g transform="translate(0,-952.36218)">
	<path d="M1,952.4c-0.6,0-1,0.4-1,1v54c0,0.6,0.4,1,1,1h82c0.6,0,1-0.4,1-1v-54c0-0.6-0.4-1-1-1L1,952.4L1,952.4z M3.8,954.4h76.3
		L42,985.1L3.8,954.4z M2,955.5l39.4,31.7c0.4,0.3,0.9,0.3,1.3,0L82,955.5v50.9H2V955.5L2,955.5z" fill="a1a1a1"/>
</g>
</svg>
