<?xml version="1.0" encoding="utf-8"?>
<!-- Generator: Adobe Illustrator 21.0.2, SVG Export Plug-In . SVG Version: 6.00 Build 0)  -->
<svg version="1.1" id="Layer_3" xmlns="http://www.w3.org/2000/svg" xmlns:xlink="http://www.w3.org/1999/xlink" x="0px" y="0px"
	 viewBox="0 0 88 88" style="enable-background:new 0 0 88 88;" xml:space="preserve">
<path d="M75.9,19.4H42.6c-1-4.9-5.4-8.6-10.6-8.6c-5.2,0-9.6,3.7-10.6,8.6h-8.8c-1.2,0-2.2,1-2.2,2.2c0,1.2,1,2.1,2.2,2.1h8.8
	c1,4.9,5.3,8.6,10.6,8.6c5.2,0,9.6-3.7,10.6-8.6h33.3c1.2,0,2.2-1,2.2-2.1C78,20.3,77.1,19.4,75.9,19.4z M32.1,28
	c-3.6,0-6.5-2.9-6.5-6.5c0-3.6,2.9-6.5,6.5-6.5c3.6,0,6.5,2.9,6.5,6.5C38.5,25.1,35.6,28,32.1,28z M75.9,40.9h-8.8
	c-1-4.9-5.4-8.6-10.6-8.6c-5.2,0-9.6,3.7-10.6,8.6H12.7c-1.2,0-2.2,1-2.2,2.2s1,2.2,2.2,2.2h33.3c1,4.9,5.3,8.6,10.6,8.6
	c5.2,0,9.6-3.7,10.6-8.6h8.8c1.2,0,2.2-1,2.2-2.2S77.1,40.9,75.9,40.9z M56.5,49.5c-3.6,0-6.5-2.9-6.5-6.5c0-3.6,2.9-6.5,6.5-6.5
	c3.6,0,6.5,2.9,6.5,6.5C63,46.7,60.1,49.5,56.5,49.5z M75.9,62.5H42.6c-1-4.9-5.4-8.6-10.6-8.6c-5.2,0-9.6,3.7-10.6,8.6h-8.8
	c-1.2,0-2.2,1-2.2,2.2c0,1.2,1,2.1,2.2,2.1h8.8c1,4.9,5.3,8.6,10.6,8.6c5.2,0,9.6-3.7,10.6-8.6h33.3c1.2,0,2.2-1,2.2-2.1
	C78,63.4,77.1,62.5,75.9,62.5z M32.1,71.1c-3.6,0-6.5-2.9-6.5-6.5c0-3.6,2.9-6.5,6.5-6.5c3.6,0,6.5,2.9,6.5,6.5
	C38.5,68.2,35.6,71.1,32.1,71.1z"/>
</svg>
