<?xml version="1.0" encoding="utf-8"?>
<!-- Generator: Adobe Illustrator 21.0.2, SVG Export Plug-In . SVG Version: 6.00 Build 0)  -->
<svg version="1.1" id="Layer_2" xmlns="http://www.w3.org/2000/svg" xmlns:xlink="http://www.w3.org/1999/xlink" x="0px" y="0px"
	 viewBox="0 0 98.5 98.5" style="enable-background:new 0 0 98.5 98.5;" xml:space="preserve">
<style type="text/css">
	.st0{fill:#293E51;}
</style>
<g>
	<g>
		<g>
			<g>
				<path class="st0" d="M54.6,98.5H43.9c-0.4,0-0.7-0.2-0.9-0.5l-5.2-10.1c-2.7-0.8-5.3-1.9-7.8-3.2l-10.8,3.4
					c-0.4,0.1-0.7,0-1-0.2l-7.5-7.5c-0.3-0.3-0.4-0.7-0.2-1l3.4-10.9c-1.3-2.4-2.4-5-3.2-7.7L0.5,55.5C0.2,55.3,0,55,0,54.6V43.9
					c0-0.4,0.2-0.7,0.5-0.9l10.1-5.3c0.8-2.7,1.8-5.3,3.2-7.7l-3.4-10.9c-0.1-0.4,0-0.7,0.2-1l7.5-7.6c0.3-0.3,0.7-0.4,1-0.2
					l10.9,3.4c2.4-1.3,5-2.4,7.7-3.2L43,0.5C43.2,0.2,43.5,0,43.9,0h10.6c0.4,0,0.7,0.2,0.9,0.5l5.3,10.1c2.7,0.8,5.3,1.8,7.7,3.2
					l10.9-3.4c0.4-0.1,0.7,0,1,0.2l7.6,7.6c0.3,0.3,0.4,0.7,0.2,1l-3.4,10.9c1.3,2.4,2.4,5,3.2,7.7L98,43c0.3,0.2,0.5,0.5,0.5,0.9
					v10.6c0,0.4-0.2,0.7-0.5,0.9l-10.1,5.3c-0.8,2.7-1.8,5.2-3.2,7.7l3.4,10.9c0.1,0.4,0,0.7-0.2,1l-7.6,7.5c-0.3,0.3-0.7,0.4-1,0.2
					l-10.8-3.4c-2.5,1.3-5.1,2.4-7.8,3.2L55.5,98C55.3,98.3,54.9,98.5,54.6,98.5z M44.5,96.5H54l5.2-9.9c0.1-0.2,0.4-0.4,0.6-0.5
					c2.8-0.8,5.6-1.9,8.1-3.3c0.2-0.1,0.5-0.2,0.8-0.1L79.3,86l6.7-6.7l-3.4-10.7c-0.1-0.3-0.1-0.5,0.1-0.8c1.4-2.6,2.5-5.3,3.3-8.1
					c0.1-0.3,0.3-0.5,0.5-0.6l10-5.2v-9.4l-10-5.2c-0.2-0.1-0.4-0.4-0.5-0.6c-0.8-2.8-1.9-5.5-3.3-8.1c-0.1-0.2-0.2-0.5-0.1-0.8
					L86,19.2l-6.7-6.7l-10.7,3.4c-0.3,0.1-0.5,0.1-0.8-0.1c-2.5-1.4-5.3-2.5-8.1-3.3c-0.3-0.1-0.5-0.3-0.6-0.5L54,2h-9.4l-5.2,10
					c-0.1,0.2-0.4,0.4-0.6,0.5c-2.8,0.8-5.5,1.9-8.1,3.3c-0.2,0.1-0.5,0.2-0.8,0.1l-10.7-3.4l-6.7,6.7l3.4,10.7
					c0.1,0.3,0.1,0.5-0.1,0.8c-1.4,2.5-2.5,5.3-3.3,8.1c-0.1,0.3-0.3,0.5-0.5,0.6L2,44.6V54l10,5.2c0.2,0.1,0.4,0.4,0.5,0.6
					c0.8,2.8,1.9,5.5,3.3,8.1c0.1,0.2,0.2,0.5,0.1,0.8l-3.4,10.7l6.7,6.7l10.7-3.4c0.3-0.1,0.6-0.1,0.8,0.1c2.6,1.4,5.3,2.6,8.1,3.3
					c0.3,0.1,0.5,0.3,0.6,0.5L44.5,96.5z"/>
			</g>
		</g>
	</g>
	<g>
		<g>
			<g>
				<path class="st0" d="M49.2,69.2c-11,0-20-9-20-20s9-20,20-20s20,9,20,20S60.3,69.2,49.2,69.2z M49.2,31.3c-9.9,0-18,8.1-18,18
					s8.1,18,18,18s18-8.1,18-18S59.2,31.3,49.2,31.3z"/>
			</g>
		</g>
	</g>
</g>
</svg>
