<?xml version="1.0" encoding="utf-8"?>
<!-- Generator: Adobe Illustrator 21.0.2, SVG Export Plug-In . SVG Version: 6.00 Build 0)  -->
<svg version="1.1" id="Layer_2" xmlns="http://www.w3.org/2000/svg" xmlns:xlink="http://www.w3.org/1999/xlink" x="0px" y="0px"
	 viewBox="0 0 88 88" style="enable-background:new 0 0 88 88;" xml:space="preserve">
<g>
	<g>
		<path d="M78.9,36.5L72.5,35c-0.5-1.6-1.1-3.1-1.9-4.6l3.5-5.8c1.3-2.1,1.9-5.1,0-7l-3.5-3.5c-1-1-2.2-1.4-3.5-1.4
			c-1.3,0-2.7,0.4-3.7,1.1l-5.6,3.6c-1.5-0.8-3-1.4-4.6-1.9l-1.4-6.5c-0.4-2.4-2.5-4.9-5.3-4.9h-5c-2.8,0-4.4,2.6-5,5l-1.6,6.4
			c-1.7,0.5-3.3,1.2-4.9,2l-5.7-3.7c-1-0.7-2.4-1.1-3.7-1.1c-1.3,0-2.6,0.4-3.5,1.4l-3.5,3.5c-1.9,1.9-1.3,5,0,7l3.6,6.1
			c-0.7,1.4-1.3,2.8-1.8,4.3l-6.4,1.4c-2.4,0.4-4.9,2.5-4.9,5.2v5c0,2.7,2.6,4.4,5,5l6.5,1.6c0.4,1.4,1,2.7,1.6,4l-3.6,6.1
			c-1.3,2.1-1.9,5.1,0,7l3.5,3.5c1,1,2.2,1.4,3.5,1.4c1.3,0,2.7-0.4,3.7-1.1l5.8-3.7c1.6,0.8,3.2,1.5,4.9,2l1.6,6.4
			c0.5,2.4,2.2,5,5,5h5c2.8,0,4.8-2.6,5.3-4.9l1.4-6.5c1.6-0.5,3.1-1.1,4.5-1.9l5.6,3.6c1,0.7,2.4,1.1,3.7,1.1
			c1.3,0,2.6-0.4,3.5-1.4l3.5-3.5c1.9-1.9,1.3-5,0-7l-3.5-5.8c0.7-1.4,1.3-2.8,1.8-4.3l6.5-1.6c2.4-0.5,5-2.2,5-5v-5
			C83.9,39,81.3,36.9,78.9,36.5z M79.9,46.7c0,0.2-0.7,0.8-2,1.1l-6.5,1.6L69.3,50L68.6,52c-0.4,1.2-0.9,2.5-1.5,3.7l-1,2l1.1,1.9
			l3.5,5.8c0.6,1,0.7,2,0.6,2.1l-3.5,3.5c-0.2,0.2-0.6,0.2-0.7,0.2c-0.5,0-1.1-0.2-1.4-0.4l-0.1,0l-0.1,0l-5.6-3.6l-1.9-1.2l-2,1.1
			c-1.3,0.7-2.6,1.2-3.9,1.6l-2.2,0.7l-0.5,2.2L47.9,78l0,0.1l0,0.1c-0.1,0.8-0.9,1.7-1.3,1.7h-5c-0.2,0-0.8-0.7-1.1-2l-1.6-6.4
			l-0.5-2.2l-2.1-0.7c-1.4-0.4-2.8-1-4.2-1.8l-2-1.1l-2,1.2l-5.8,3.7l-0.1,0l-0.1,0c-0.4,0.3-0.9,0.4-1.4,0.4c-0.1,0-0.5,0-0.7-0.2
			l-3.5-3.5c-0.1-0.1-0.1-1.1,0.6-2.2l3.6-6.1l1.1-1.9l-1-2c-0.6-1.2-1.1-2.3-1.4-3.4L18.7,50l-2.1-0.5L10,47.8
			c-1.2-0.3-1.9-0.9-1.9-1.1v-5c0-0.4,0.8-1.2,1.7-1.3l0.1,0l0.1,0l6.4-1.4l2.2-0.5l0.7-2.2c0.4-1.2,0.9-2.4,1.5-3.7l1-1.9l-1.1-1.9
			L17,22.6c-0.6-1-0.7-2-0.6-2.1l3.5-3.5c0.2-0.2,0.5-0.2,0.7-0.2c0.5,0,1.1,0.2,1.4,0.4l0.1,0l0.1,0l5.7,3.7l2,1.2l2-1.1
			c1.4-0.7,2.8-1.3,4.2-1.8l2.1-0.7l0.5-2.2l1.6-6.5c0.3-1.2,0.9-1.9,1.1-1.9h5c0.4,0,1.2,0.8,1.3,1.7l0,0.1l0,0.1l1.4,6.5l0.5,2.2
			l2.2,0.7c1.3,0.4,2.7,1,3.9,1.7l2,1.1l1.9-1.2l5.6-3.6l0.1,0l0.1,0c0.4-0.3,0.9-0.4,1.4-0.4c0.1,0,0.5,0,0.7,0.2l3.5,3.5
			c0.1,0.1,0.1,1.1-0.6,2.2l-3.5,5.8l-1.1,1.9l1,2c0.7,1.4,1.2,2.7,1.6,4l0.7,2.2l2.2,0.5l6.4,1.4l0.1,0l0.1,0
			c0.8,0.1,1.7,0.9,1.7,1.3L79.9,46.7L79.9,46.7z M44,28.1c-8.8,0-16,7.2-16,15.9s7.2,15.9,16,15.9c8.8,0,16-7.2,16-15.9
			S52.9,28.1,44,28.1z M44.1,56c-6.6,0-12-5.4-12-12s5.4-12,12-12c6.6,0,12.1,5.4,12.1,12S50.7,56,44.1,56z"/>
	</g>
</g>
</svg>
