<?xml version="1.0" encoding="utf-8"?>
<!-- Generator: Adobe Illustrator 21.0.2, SVG Export Plug-In . SVG Version: 6.00 Build 0)  -->
<svg version="1.1" id="Layer_1" xmlns="http://www.w3.org/2000/svg" xmlns:xlink="http://www.w3.org/1999/xlink" x="0px" y="0px"
	 viewBox="0 0 66.7 56.4" style="enable-background:new 0 0 66.7 56.4;" xml:space="preserve">
<style type="text/css">
	.st0{fill:#2C3E50;}
</style>
<path class="st0" d="M66.7,36.6c0-0.2-0.1-0.4-0.3-0.5l-2-1.1l2-1.1c0.2-0.1,0.3-0.3,0.3-0.5s-0.1-0.4-0.3-0.5l-9.1-5.3l6.7-3.9
	c0.2-0.1,0.3-0.3,0.3-0.5s-0.1-0.4-0.3-0.5l-2-1.1l2-1.1c0.2-0.1,0.3-0.3,0.3-0.5s-0.1-0.4-0.3-0.5l-2-1.1l2-1.1
	c0.2-0.1,0.3-0.3,0.3-0.5s-0.1-0.4-0.3-0.5L62,15l2-1.1c0.2-0.1,0.3-0.3,0.3-0.5S64.2,13,64,12.9L41.5,0.1c-0.2-0.1-0.4-0.1-0.6,0
	L0.3,23.5C0.1,23.6,0,23.8,0,24s0.1,0.4,0.3,0.5l2,1.1l-2,1.1C0.1,26.9,0,27,0,27.3c0,0.2,0.1,0.4,0.3,0.5l2,1.1l-2,1.1
	C0.1,30.1,0,30.3,0,30.5s0.1,0.4,0.3,0.5l2,1.1l-2,1.1C0.1,33.4,0,33.6,0,33.8s0.1,0.4,0.3,0.5L22.8,47c0.1,0.1,0.2,0.1,0.3,0.1
	c0.1,0,0.2,0,0.3-0.1l1.9-1.1l18,10.4c0.1,0.1,0.2,0.1,0.3,0.1s0.2,0,0.3-0.1l22.5-12.7c0.2-0.1,0.3-0.3,0.3-0.5s-0.1-0.4-0.3-0.5
	l-2-1.1l2-1.1c0.2-0.1,0.3-0.3,0.3-0.5s-0.1-0.4-0.3-0.5l-2-1.1l2-1.1C66.6,37,66.7,36.8,66.7,36.6z M64.9,33.3l-21.3,12l-8.6-5
	l5.2-3c0.1,0,0.1,0,0.2,0l8.2-4.7c0.1,0,0.1-0.1,0.2-0.2l7.3-4.2L64.9,33.3z M62.5,23.1L48.9,31v-1.9l12-6.9L62.5,23.1z M62.5,19.9
	l-13.6,7.9v-1.9l12-6.9L62.5,19.9z M62.5,16.6l-13.6,7.9v-1.9l12-6.9L62.5,16.6z M41.2,1.3l21.3,12.1l-14.3,8.2L26.9,9.5L41.2,1.3z
	 M1.8,24l15.7-9.1L38.8,27l-15.7,9L1.8,24z M1.8,27.3l1.7-1l19.4,10.9c0.1,0.1,0.2,0.1,0.3,0.1c0.1,0,0.2,0,0.3-0.1l16-9.2v1.9
	l-16.4,9.4L1.8,27.3z M1.8,30.5l1.7-1l19.4,10.9c0.1,0.1,0.2,0.1,0.3,0.1c0.1,0,0.2,0,0.3-0.1l16.1-9.3V33l-16.4,9.4L1.8,30.5z
	 M23.1,45.8l-21.3-12l1.7-1l19.4,10.9c0.1,0.1,0.2,0.1,0.3,0.1c0.1,0,0.2,0,0.3-0.1l16.1-9.3v1.9L23.1,45.8z M64.9,43.1l-21.3,12
	l-17.1-9.9l1.7-1l15.2,8.7c0.1,0.1,0.2,0.1,0.3,0.1s0.2,0,0.3-0.1L63.4,42L64.9,43.1z M64.9,39.8L43.6,51.9l-14.3-8.2l1.7-1
	l12.3,7.1c0.1,0.1,0.2,0.1,0.3,0.1s0.2,0,0.3-0.1l19.4-10.9L64.9,39.8z M43.6,48.6L32.1,42l1.7-1l9.5,5.5c0.1,0.1,0.2,0.1,0.3,0.1
	s0.2,0,0.3-0.1l19.4-10.9l1.7,1L43.6,48.6z"/>
<g>
	<path class="st0" d="M12.7,23c0.7,0,1.3,0.1,1.9,0.4c0.7,0.4,1,0.9,0.8,1.4c-0.1,0.3-0.4,0.6-0.8,0.9l0.9,0.5L15,26.4l-0.9-0.5
		c-0.6,0.3-1.2,0.5-1.7,0.5c-0.8,0.1-1.7-0.1-2.5-0.6l1.2-0.7c0.4,0.2,0.7,0.3,0.9,0.3c0.3,0,0.7,0,1.1-0.2l-1.9-1.1l-0.5,0.1
		c-0.7,0.2-1.4,0.3-1.9,0.3s-1-0.2-1.4-0.4c-0.1,0-0.4-0.1-0.5-0.3s-0.2-0.4-0.2-0.5c0-0.2,0.1-0.5,0.3-0.7c0.1-0.1,0.3-0.3,0.6-0.5
		L7,21.8l0.4-0.2L8,21.9c0.5-0.3,1-0.4,1.5-0.4c0.8-0.1,1.6,0,2.3,0.4l-1.2,0.7c-0.3-0.1-0.5-0.2-0.7-0.3c-0.3-0.1-0.6,0-0.9,0.2
		l1.7,1C11.6,23.1,12.2,23,12.7,23z M13.9,24.7c0-0.2-0.1-0.4-0.4-0.6c-0.2-0.1-0.5-0.2-0.8-0.2c-0.2,0-0.5,0.1-0.8,0.1l1.7,1
		C13.7,25,13.9,24.8,13.9,24.7 M10.1,23.6l-1.5-0.9c-0.3,0.2-0.4,0.3-0.4,0.4s0.1,0.3,0.3,0.4c0.3,0.1,0.5,0.2,0.9,0.2
		C9.6,23.7,9.8,23.7,10.1,23.6"/>
</g>
</svg>
