<?xml version="1.0" encoding="utf-8"?>
<!-- Generator: Adobe Illustrator 21.0.2, SVG Export Plug-In . SVG Version: 6.00 Build 0)  -->
<svg version="1.1" xmlns="http://www.w3.org/2000/svg" xmlns:xlink="http://www.w3.org/1999/xlink" x="0px" y="0px"
	 viewBox="0 0 198.9 198.9" style="enable-background:new 0 0 198.9 198.9;" xml:space="preserve">
<style type="text/css">
	.st0{fill:#A1A1A1;}
</style>
<g id="Layer_2">
	<g>
		<path class="st0" d="M99.5,198.9C44.6,198.9,0,154.3,0,99.5S44.6,0,99.5,0s99.5,44.6,99.5,99.5S154.3,198.9,99.5,198.9z M99.5,9
			C49.6,9,9,49.6,9,99.5c0,49.9,40.6,90.5,90.5,90.5c49.9,0,90.5-40.6,90.5-90.5C189.9,49.6,149.3,9,99.5,9z"/>
	</g>
</g>
<g id="Layer_3">
	<g>
		<path class="st0" d="M50.3,125.8L31.5,68.5h8.1l8.9,28.2c2.4,7.7,4.5,14.7,6.1,21.4h0.2c1.6-6.6,3.9-13.9,6.5-21.3L71,68.5h7.9
			l-20.5,57.3H50.3z"/>
		<path class="st0" d="M96.8,68.5v57.3h-7.5V68.5H96.8z"/>
		<path class="st0" d="M114,125.8V68.5h8.2l18.3,29c4.2,6.7,7.6,12.8,10.2,18.6l0.3-0.1c-0.7-7.7-0.9-14.6-0.9-23.5v-24h7v57.3h-7.5
			l-18.2-29.1c-4-6.4-7.8-12.9-10.6-19.1l-0.3,0.1c0.4,7.2,0.5,14.1,0.5,23.6v24.5H114z"/>
	</g>
</g>
</svg>
