<?xml version="1.0" encoding="utf-8"?>
<!-- Generator: Adobe Illustrator 21.0.2, SVG Export Plug-In . SVG Version: 6.00 Build 0)  -->
<svg version="1.1" id="Layer_1" xmlns="http://www.w3.org/2000/svg" xmlns:xlink="http://www.w3.org/1999/xlink" x="0px" y="0px"
	 viewBox="0 0 82 82" style="enable-background:new 0 0 82 82;" xml:space="preserve">
<g>
	<path d="M26,54.8c3.3,3.1,5,6.9,5,11.2v13c0,1.5,1.5,3,3.1,3h13.8c1.6,0,3.1-1.5,3.1-3V66c0-4.3,1.7-8.1,4.9-11.2
		c4.5-4.2,7.1-10.2,7.1-16.4S60.5,26.3,56,22c-4.4-4.2-10.1-6.3-16.1-6C28.7,16.6,19.5,26,19,37.4C18.7,44,21.3,50.3,26,54.8z
		 M49,79c0,0.4-0.6,1-1.1,1H34.1c-0.5,0-1.1-0.6-1.1-1V68.9h16V79z M21,37.5c0.4-10.4,8.8-18.9,19-19.4c0.3,0,0.7,0,1,0
		c5.1,0,9.9,1.9,13.6,5.5c4,3.8,6.4,9.3,6.4,14.9c0,5.7-2.4,11.1-6.5,15C50.9,56.8,49,61.1,49,66v0.9H33V66c0-4.9-1.9-9.2-5.6-12.7
		C23.1,49.2,20.8,43.5,21,37.5z"/>
	<rect x="40" width="2" height="9.6"/>
	<rect x="60" y="13.7" transform="matrix(0.7071 -0.7071 0.7071 0.7071 8.5722 50.1457)" width="9.6" height="2"/>
	<rect x="16.2" y="9.9" transform="matrix(0.7071 -0.7071 0.7071 0.7071 -5.3368 16.4552)" width="2" height="9.6"/>
</g>
</svg>
