<?xml version="1.0" encoding="utf-8"?>
<!-- Generator: Adobe Illustrator 21.0.2, SVG Export Plug-In . SVG Version: 6.00 Build 0)  -->
<svg version="1.1" id="Layer_3" xmlns="http://www.w3.org/2000/svg" xmlns:xlink="http://www.w3.org/1999/xlink" x="0px" y="0px"
	 viewBox="0 0 82 82" style="enable-background:new 0 0 82 82;" xml:space="preserve">
<g>
	<g>
		<g>
			<g>
				<path d="M49.4,65.9H31.2c-0.9,0-1.7-0.8-1.7-1.7c0-6.5-2.8-12.7-7.9-17.6c-5.4-5.1-8.3-12-8.4-19.4C13.2,12.8,24.9,0.6,39.3,0
					c7.4-0.3,14.5,2.4,19.8,7.6c5.3,5.1,8.3,12.1,8.3,19.5c0,7.5-3,14.4-8.4,19.6c-5.1,4.8-7.9,11.1-7.9,17.5
					C51.2,65.2,50.4,65.9,49.4,65.9z M32.9,64.2L32.9,64.2L32.9,64.2z M32.9,62.5h14.9c0.4-6.8,3.6-13.3,8.9-18.3
					c4.7-4.5,7.3-10.6,7.3-17.1c0-6.5-2.6-12.5-7.2-17c-4.7-4.5-10.8-6.8-17.3-6.6C26.8,3.9,16.6,14.6,16.7,27.2
					c0,6.5,2.6,12.5,7.3,17C29.3,49.3,32.4,55.7,32.9,62.5z"/>
			</g>
		</g>
	</g>
	<g>
		<g>
			<g>
				<path d="M49.4,74H31.2c-0.9,0-1.7-0.8-1.7-1.7s0.8-1.7,1.7-1.7h18.2c0.9,0,1.7,0.8,1.7,1.7S50.4,74,49.4,74z"/>
			</g>
		</g>
	</g>
	<g>
		<g>
			<g>
				<path d="M45.8,82H34.9c-0.9,0-1.7-0.8-1.7-1.7s0.8-1.7,1.7-1.7h10.9c0.9,0,1.7,0.8,1.7,1.7S46.7,82,45.8,82z"/>
			</g>
		</g>
	</g>
</g>
</svg>
