<?xml version="1.0" encoding="utf-8"?>
<!-- Generator: Adobe Illustrator 21.0.2, SVG Export Plug-In . SVG Version: 6.00 Build 0)  -->
<svg version="1.1"
	 id="Layer_1" xmlns:cc="http://creativecommons.org/ns#" xmlns:dc="http://purl.org/dc/elements/1.1/" xmlns:inkscape="http://www.inkscape.org/namespaces/inkscape" xmlns:rdf="http://www.w3.org/1999/02/22-rdf-syntax-ns#" xmlns:sodipodi="http://sodipodi.sourceforge.net/DTD/sodipodi-0.dtd" xmlns:svg="http://www.w3.org/2000/svg"
	 xmlns="http://www.w3.org/2000/svg" xmlns:xlink="http://www.w3.org/1999/xlink" x="0px" y="0px" viewBox="0 0 88 88"
	 style="enable-background:new 0 0 88 88;" xml:space="preserve">
<g transform="translate(0,-952.36218)">
	<path d="M43.8,952.4c-1,0.1-1.8,1-1.8,2v13c0,1.1,0.9,2,2,2c1.1,0,2-0.9,2-2c0,0,0,0,0-0.1v-13c0-1.1-0.9-2-2-2
		C44,952.4,43.9,952.4,43.8,952.4z M15.9,959.4c-1.1,0.1-1.9,1-1.8,2.1c0,0.4,0.2,0.8,0.5,1.1l8,10c0.7,0.9,1.9,1,2.8,0.3
		c0.9-0.7,1-1.9,0.3-2.8l0,0l-8-10C17.2,959.6,16.5,959.3,15.9,959.4L15.9,959.4z M71.9,959.4c-0.6,0-1.1,0.3-1.5,0.8l-8,10
		c-0.7,0.9-0.5,2.1,0.3,2.8c0.9,0.7,2.1,0.6,2.8-0.3l0,0l8-10c0.7-0.8,0.6-2.1-0.3-2.8C72.9,959.5,72.4,959.3,71.9,959.4L71.9,959.4
		z M44,973.4c-13.8,0-25,11.2-25,25c0,9,4.9,16.6,12,21v14c0,3.8,3.2,7,7,7h12c3.8,0,7-3.2,7-7v-14c7.1-4.4,12-12,12-21
		C69,984.6,57.8,973.4,44,973.4z M44,977.4c11.6,0,21,9.4,21,21c0,8-4.4,14.6-11,18.2c-0.6,0.4-1,1-1,1.8v15c0,1.7-1.3,3-3,3H38
		c-1.7,0-3-1.3-3-3v-15c0-0.7-0.4-1.4-1-1.8c-6.5-3.6-11-10.2-11-18.2C23,986.8,32.4,977.4,44,977.4z"/>
</g>
</svg>
