<?xml version="1.0" encoding="utf-8"?>
<!-- Generator: Adobe Illustrator 21.0.2, SVG Export Plug-In . SVG Version: 6.00 Build 0)  -->
<svg version="1.1" id="Layer_2" xmlns="http://www.w3.org/2000/svg" xmlns:xlink="http://www.w3.org/1999/xlink" x="0px" y="0px"
	 viewBox="0 0 88.1 88" style="enable-background:new 0 0 88.1 88;" xml:space="preserve">
<path d="M43.8,0C31.2,0,21,10.2,21,22.9s10.2,22.9,22.9,22.9s22.9-10.2,22.9-22.9S56.5,0,43.8,0z M43.8,42.3
	c-10.7,0-19.4-8.7-19.4-19.4S33.1,3.4,43.8,3.4s19.4,8.7,19.4,19.4S54.6,42.3,43.8,42.3z" fill="#a1a1a1"/>
<g>
	<path d="M88,86.3c0-24.3-19.7-44-44-44S0,62,0,86.3h3.4c0-22.4,18.2-40.6,40.6-40.6s40.6,18.2,40.6,40.6H88z" fill="#a1a1a1"/>
	<circle cx="1.7" cy="86.3" r="1.7" fill="#a1a1a1"/>
	<circle cx="86.3" cy="86.3" r="1.7" fill="#a1a1a1"/>
</g>
</svg>
