<?xml version="1.0" encoding="utf-8"?>
<!-- Generator: Adobe Illustrator 21.0.2, SVG Export Plug-In . SVG Version: 6.00 Build 0)  -->
<svg version="1.1" id="Layer_1" xmlns="http://www.w3.org/2000/svg" xmlns:xlink="http://www.w3.org/1999/xlink" x="0px" y="0px"
	 viewBox="0 0 512 476.6" style="enable-background:new 0 0 512 476.6;" xml:space="preserve" fill="2c3e50">
<title>like</title>
<g>
	<path d="M256,476.6l-41.1-41.1C147.1,375.6,96.4,329.7,60.1,285.5C19.1,235.7,0,191.1,0,145.2C0,105.6,14.9,69,41.9,41.9
		S105.6,0,145.1,0C186.3,0,227,17.4,256,47.1c29-29.6,69.7-47,110.9-47C406.4,0,443,14.9,470.1,42S512,105.6,512,145.2
		c0,45.9-19.1,90.5-60.1,140.4c-36.3,44.2-87.1,90-154.8,149.9L256,476.6z M145.1,19.3c-70.6,0-125.8,55.3-125.8,125.9
		c0,87.3,75.4,158.2,208.6,276.1l0.4,0.4l27.7,27.7l28.1-28.1c133.2-117.9,208.6-188.8,208.6-276.1c0-70.6-55.3-125.9-125.8-125.9
		c-38.6,0-78.3,18.5-103.5,48.3l-7.4,8.7l-7.4-8.7C223.4,37.8,183.8,19.3,145.1,19.3z"/>
</g>
</svg>
