<?xml version="1.0" encoding="utf-8"?>
<!-- Generator: Adobe Illustrator 21.0.2, SVG Export Plug-In . SVG Version: 6.00 Build 0)  -->
<svg version="1.1" id="Layer_1" xmlns="http://www.w3.org/2000/svg" xmlns:xlink="http://www.w3.org/1999/xlink" x="0px" y="0px"
	 viewBox="0 0 74.8 74" style="enable-background:new 0 0 74.8 74;" xml:space="preserve">
<path d="M37,0C16.6,0,0,16.6,0,37c0,20.4,16.6,37,37,37c6,0,12-1.5,17.3-4.3l18.8,2c0.5,0.1,1-0.1,1.3-0.5c0.3-0.4,0.4-0.9,0.3-1.3
	l-4-17.7C72.9,47.4,74,42.2,74,37C74,16.6,57.4,0,37,0z M67.7,52.3l3.6,16.2l-17.2-1.8c-0.3,0-0.6,0-0.9,0.2
	c-16.5,9-37.1,2.9-46.1-13.6S4.2,16.1,20.7,7.1s37.1-2.9,46.1,13.6c2.7,5,4.1,10.6,4.1,16.3c0,5-1.1,9.9-3.2,14.4
	C67.7,51.7,67.6,52,67.7,52.3z"/>
</svg>
