<?xml version="1.0" encoding="utf-8"?>
<!-- Generator: Adobe Illustrator 21.0.2, SVG Export Plug-In . SVG Version: 6.00 Build 0)  -->
<svg version="1.1"
	 id="Layer_1" xmlns:cc="http://creativecommons.org/ns#" xmlns:dc="http://purl.org/dc/elements/1.1/" xmlns:inkscape="http://www.inkscape.org/namespaces/inkscape" xmlns:rdf="http://www.w3.org/1999/02/22-rdf-syntax-ns#" xmlns:sodipodi="http://sodipodi.sourceforge.net/DTD/sodipodi-0.dtd" xmlns:svg="http://www.w3.org/2000/svg"
	 xmlns="http://www.w3.org/2000/svg" xmlns:xlink="http://www.w3.org/1999/xlink" x="0px" y="0px" viewBox="0 0 14 72"
	 style="enable-background:new 0 0 14 72;" xml:space="preserve">
<g transform="translate(0,-952.36218)">
	<path d="M14,959.4c0-3.9-3.1-7-7-7c-3.9,0-7,3.1-7,7c0,3.9,3.1,7,7,7C10.9,966.4,14,963.2,14,959.4z M14,988.4c0-3.9-3.1-7-7-7
		c-3.9,0-7,3.1-7,7c0,3.9,3.1,7,7,7C10.9,995.4,14,992.2,14,988.4z M14,1017.4c0-3.9-3.1-7-7-7c-3.9,0-7,3.1-7,7c0,3.9,3.1,7,7,7
		C10.9,1024.4,14,1021.2,14,1017.4z"/>
</g>
</svg>
