<?xml version="1.0" encoding="utf-8"?>
<!-- Generator: Adobe Illustrator 21.0.2, SVG Export Plug-In . SVG Version: 6.00 Build 0)  -->
<svg version="1.1" id="Layer_3" xmlns="http://www.w3.org/2000/svg" xmlns:xlink="http://www.w3.org/1999/xlink" x="0px" y="0px"
	 viewBox="0 0 82 82" style="enable-background:new 0 0 82 82;" xml:space="preserve">
<g>
	<g>
		<path d="M50.3,68.8c-0.5,0-0.9-0.2-1.3-0.5c-0.7-0.7-0.7-1.9,0-2.6l24.5-24.5L49,16.6c-0.7-0.7-0.7-1.9,0-2.6
			c0.7-0.7,1.9-0.7,2.6,0l25.8,25.8c0.7,0.7,0.7,1.9,0,2.6L51.6,68.2C51.3,68.6,50.8,68.8,50.3,68.8z" />
	</g>
	<g>
		<path d="M76.1,42.9H20.8c-1,0-1.8-0.8-1.8-1.8s0.8-1.8,1.8-1.8h55.3c1,0,1.8,0.8,1.8,1.8S77.2,42.9,76.1,42.9z" />
	</g>
	<g>
		<path d="M6.1,76.1c-1,0-1.8-0.8-1.8-1.8V7.9c0-1,0.8-1.8,1.8-1.8s1.8,0.8,1.8,1.8v66.4C7.9,75.3,7.1,76.1,6.1,76.1z"/>
	</g>
</g>
</svg>
