<?xml version="1.0" encoding="utf-8"?>
<!-- Generator: Adobe Illustrator 21.0.2, SVG Export Plug-In . SVG Version: 6.00 Build 0)  -->
<svg version="1.1" id="Layer_2" xmlns="http://www.w3.org/2000/svg" xmlns:xlink="http://www.w3.org/1999/xlink" x="0px" y="0px"
	 viewBox="0 0 82 82" style="enable-background:new 0 0 82 82;" xml:space="preserve">
<path d="M67.1,0L34.3,29.3c-2.6-0.7-5.4-1.1-7.6-1.1C12,28.2,0,40.3,0,55.1S12,82,26.7,82s26.7-12,26.7-26.9c0-3.6-0.5-6.7-1.3-9.5
	l10.2-5.1V30.4h9.8V17.9H82V0H67.1z M78.4,14.3h-9.8v12.6h-9.7v11.5L47.7,44l0.6,1.5c1.1,2.6,1.6,5.6,1.6,9.6
	c0,12.8-10.4,23.3-23.1,23.3S3.6,68,3.6,55.1s10.4-23.3,23.1-23.3c2.2,0,5,0.5,7.5,1.3l1,0.3L68.4,3.6h10V14.3z M19.1,51.9
	c-4.5,0-8,3.6-8,8.1s3.6,8.1,8,8.1s8-3.6,8-8.1S23.6,51.9,19.1,51.9z M19.1,64.5c-2.5,0-4.5-2-4.5-4.5c0-2.5,2-4.5,4.5-4.5
	s4.5,2,4.5,4.5C23.6,62.5,21.6,64.5,19.1,64.5z M63.7,14c0.6,0.7,0.6,1.8-0.1,2.6L44,34.4c-0.4,0.3-0.7,0.5-1.2,0.5
	c-0.5,0-1-0.2-1.3-0.5c-0.6-0.7-0.6-1.8,0.1-2.6l19.6-17.9C62,13.2,63,13.3,63.7,14z"/>
</svg>
