<?xml version="1.0" encoding="utf-8"?>
<!-- Generator: Adobe Illustrator 21.0.2, SVG Export Plug-In . SVG Version: 6.00 Build 0)  -->
<svg version="1.1" id="Layer_1" xmlns="http://www.w3.org/2000/svg" xmlns:xlink="http://www.w3.org/1999/xlink" x="0px" y="0px"
	 viewBox="0 0 57.7 75.1" style="enable-background:new 0 0 57.7 75.1;" xml:space="preserve">
<path d="M51.2,27.9H46V17.1C46,7.7,38.3,0,28.8,0S11.7,7.7,11.7,17.1v10.8H6.5c-3.6,0-6.5,2.9-6.5,6.5v34.2c0,3.6,2.9,6.5,6.5,6.5
	h44.7c3.6,0,6.5-2.9,6.5-6.5V34.4C57.7,30.8,54.8,27.9,51.2,27.9z M14.7,17.1C14.7,9.3,21.1,3,28.8,3S43,9.3,43,17.1v10.8H14.7V17.1
	z M54.7,68.6c0,1.9-1.6,3.5-3.5,3.5H6.5c-1.9,0-3.5-1.6-3.5-3.5V34.4c0-1.9,1.6-3.5,3.5-3.5h44.7c1.9,0,3.5,1.6,3.5,3.5V68.6z" fill="a1a1a1"/>
</svg>
