<?xml version="1.0" encoding="utf-8"?>
<!-- Generator: Adobe Illustrator 21.0.2, SVG Export Plug-In . SVG Version: 6.00 Build 0)  -->
<svg version="1.1" id="Layer_1" xmlns="http://www.w3.org/2000/svg" xmlns:xlink="http://www.w3.org/1999/xlink" x="0px" y="0px"
	 viewBox="0 0 72 71.2" style="enable-background:new 0 0 72 71.2;" xml:space="preserve">
<title>Creator Icon_14</title>
<g>
	<path d="M55.9,40.6c-1.8-1.8-4.8-1.8-6.6,0.1l0,0l-5.5,5.6c-0.8,0.8-2.2,0.8-3.1,0l-16.3-16c-0.8-0.8-0.8-2.2,0-3.1c0,0,0,0,0,0
		l5.4-5.6c1.8-1.8,1.8-4.8-0.1-6.6l-14-13.7C13.9-0.5,11-0.4,9.2,1.4l-3,3.1C-2.2,13-2,26.7,6.5,35.1L37,65
		c8.6,8.4,22.3,8.2,30.7-0.3l3-3.1c1.8-1.8,1.8-4.8-0.1-6.6L55.9,40.6z M68.9,59.9l-3,3.1c-7.4,7.6-19.6,7.7-27.1,0.3L8.3,33.4
		C0.7,25.9,0.6,13.8,8,6.2l3-3.1c0.8-0.8,2.2-0.8,3.1,0c0,0,0,0,0,0l14,13.7c0.8,0.8,0.8,2.2,0,3.1l-5.5,5.6
		c-1.8,1.8-1.8,4.8,0.1,6.6l16.3,16c1.8,1.8,4.8,1.8,6.6-0.1l5.4-5.6c0.8-0.8,2.2-0.8,3.1,0c0,0,0,0,0,0l14.8,14.4
		C69.7,57.7,69.7,59,68.9,59.9C68.9,59.9,68.9,59.9,68.9,59.9L68.9,59.9z" fill="a1a1a1"/>
</g>
</svg>
