<?xml version="1.0" encoding="utf-8"?>
<!-- Generator: Adobe Illustrator 21.0.2, SVG Export Plug-In . SVG Version: 6.00 Build 0)  -->
<svg version="1.1" id="Layer_2" xmlns="http://www.w3.org/2000/svg" xmlns:xlink="http://www.w3.org/1999/xlink" x="0px" y="0px"
	 viewBox="0 0 82 82" style="enable-background:new 0 0 82 82;" xml:space="preserve">
<g>
	<path d="M41.2,79.5c-0.2,0-0.5-0.1-0.7-0.2C19.3,68.1,6.2,47.5,6.2,25.4v-3.7c0-0.8,0.7-1.5,1.5-1.5c10,0,18.2-7.2,18.2-16.1
		c0-0.8,0.7-1.5,1.5-1.5H55c0.8,0,1.5,0.7,1.5,1.5c0,8.9,8.2,16.1,18.2,16.1c0.8,0,1.5,0.7,1.5,1.5v3.7c0,22.1-13.2,42.7-34.3,53.9
		C41.7,79.4,41.5,79.5,41.2,79.5z M9.2,23.2v2.2c0,20.7,12.2,40,32,50.8c19.7-10.7,32-30.1,32-50.8v-2.2C62.7,22.6,54.3,15,53.5,5.6
		H28.9C28.1,15,19.7,22.6,9.2,23.2z"/>
</g>
</svg>
