<?xml version="1.0" encoding="utf-8"?>
<!-- Generator: Adobe Illustrator 21.0.2, SVG Export Plug-In . SVG Version: 6.00 Build 0)  -->
<svg version="1.1" id="Layer_2" xmlns="http://www.w3.org/2000/svg" xmlns:xlink="http://www.w3.org/1999/xlink" x="0px" y="0px"
	 viewBox="0 0 103.6 103.4" style="enable-background:new 0 0 103.6 103.4;" xml:space="preserve">
<style type="text/css">
	.st0{fill:#A1A1A1;}
</style>
<path class="st0" d="M51.5,7.7c-12.6,0-22.8,10.2-22.8,22.9s10.2,22.9,22.9,22.9s22.9-10.2,22.9-22.9S64.2,7.7,51.5,7.7z M51.5,50
	c-10.7,0-19.4-8.7-19.4-19.4s8.7-19.5,19.4-19.5s19.4,8.7,19.4,19.4S62.3,50,51.5,50z"/>
<g>
	<path class="st0" d="M95.7,94c0-24.3-19.7-44-44-44s-44,19.7-44,44h3.4c0-22.4,18.2-40.6,40.6-40.6S92.3,71.6,92.3,94H95.7z"/>
	<circle class="st0" cx="9.4" cy="94" r="1.7"/>
	<circle class="st0" cx="94" cy="94" r="1.7"/>
</g>
</svg>
